# xmcd CD database file
#
# Track frame offsets:
#	150
#	22857
#	49257
#
# Disc length: 957 seconds
#
# Revision: 0
# Processed by: cddbd v1.5PL3 Copyright (c) Steve Scherf et al.
# Submitted via: CDex 1.51
#
DISCID=1a03bb03
DTITLE=Re:Japan - Bittersweet Samba 〜ニッポンの夜明け前〜
DYEAR=2002
DGENRE=JPop
TTITLE0=Bittersweet Samba 〜ニッポンの夜明け前〜
TTITLE1=Bittersweet Samba 〜Casino Voyage Splendid Dancers Mix〜
TTITLE2=Bittersweet Samba 〜Instrumental〜
EXTD=YEAR: 2002
EXTT0=
EXTT1=
EXTT2=
PLAYORDER=
